# xmcd CD database file
#
# Track frame offsets:
#	150
#	15193
#	31228
#	48833
#	64463
#	81418
#	97963
#	117030
#	141053
#	160965
#	176570
#	191933
#	208310
#	229845
#	250338
#
# Disc length: 3586 seconds
#
# Revision: 0
# Processed by: cddbd v1.5PL3 Copyright (c) Steve Scherf et al.
# Submitted via: CDex 1.51
#
DISCID=cc0e000f
DTITLE=Jay McShann - Roll 'em
DYEAR=1987
DGENRE=Blues
TTITLE0=Hand's off
TTITLE1=Hootie ignorant oil
TTITLE2=Confessin' the blues
TTITLE3=Roll 'em
TTITLE4=Kansas city
TTITLE5=Our kinda blues
TTITLE6=Rollin' with roland
TTITLE7=Stompin' in K.C.
TTITLE8=After hours
TTITLE9=Hootie blues
TTITLE10='fore day rider
TTITLE11=Shorty george
TTITLE12=Jive at five
TTITLE13=Just you, just me
TTITLE14=Tain't nobody's business if I do
EXTD=YEAR: 1987
EXTT0=
EXTT1=
EXTT2=
EXTT3=
EXTT4=
EXTT5=
EXTT6=
EXTT7=
EXTT8=
EXTT9=
EXTT10=
EXTT11=
EXTT12=
EXTT13=
EXTT14=
PLAYORDER=
